<svg width="776"
     height="822"
     viewBox="0 0 776 822"
     fill="none"
     xmlns="http://www.w3.org/2000/svg">
  <path d="M429.832 0.272724V105H406.105L368.264 49.9773H367.651V105H339.219V0.272724H363.355L400.582 55.0909H401.401V0.272724H429.832Z"
        fill="hsl(45, 100%, 52%)" />
  <path d="M373 750H397V822H373V750Z"
        fill="hsl(45, 100%, 52%)" />
  <path fill-rule="evenodd"
        clip-rule="evenodd"
        d="M0 408L0 432H72.0929V408H0ZM703.907 408V432H776V408H703.907Z"
        fill="hsl(45, 100%, 52%)" />
  <path fill-rule="evenodd"
        clip-rule="evenodd"
        d="M52.5763 591.484L64.5763 612.268L107.878 587.268L95.8775 566.484L52.5763 591.484ZM663.124 238.984L675.124 259.768L718.425 234.768L706.425 213.984L663.124 238.984Z"
        fill="#47515C"
        fill-opacity="0.5" />
  <path fill-rule="evenodd"
        clip-rule="evenodd"
        d="M182.698 737.711L203.483 749.711L228.483 706.409L207.698 694.409L182.698 737.711ZM535.198 127.163L555.983 139.163L580.983 95.8614L560.198 83.8614L535.198 127.163Z"
        fill="#47515C"
        fill-opacity="0.5" />
  <path fill-rule="evenodd"
        clip-rule="evenodd"
        d="M560.198 759.711L580.983 747.711L555.983 704.409L535.198 716.409L560.198 759.711ZM207.698 149.163L228.483 137.163L203.483 93.8614L182.698 105.861L207.698 149.163Z"
        fill="#47515C"
        fill-opacity="0.5" />
  <path fill-rule="evenodd"
        clip-rule="evenodd"
        d="M706.426 629.588L718.426 608.804L675.125 583.804L663.125 604.588L706.426 629.588ZM95.878 277.088L107.878 256.304L64.5767 231.304L52.5767 252.088L95.878 277.088Z"
        fill="#47515C"
        fill-opacity="0.5" />
  <path fill-rule="evenodd"
        clip-rule="evenodd"
        d="M20.8216 497.928L27.033 521.109L44.3877 516.459L38.1763 493.278L20.8216 497.928ZM730.435 307.789L736.646 330.97L754.001 326.32L747.789 303.138L730.435 307.789Z"
        fill="#47515C"
        fill-opacity="0.2" />
  <path fill-rule="evenodd"
        clip-rule="evenodd"
        d="M108.381 672.342L125.324 689.286L138.029 676.581L121.085 659.638L108.381 672.342ZM626.87 153.799L643.813 170.743L657.956 156.6L641.012 139.657L626.87 153.799Z"
        fill="#47515C"
        fill-opacity="0.2" />
  <path fill-rule="evenodd"
        clip-rule="evenodd"
        d="M271.35 779.574L294.531 785.786L299.182 768.431L276 762.22L271.35 779.574ZM461.489 69.9631L484.67 76.1745L489.32 58.8198L466.139 52.6085L461.489 69.9631Z"
        fill="#47515C"
        fill-opacity="0.2" />
  <path fill-rule="evenodd"
        clip-rule="evenodd"
        d="M466.14 790.964L489.321 784.753L484.671 767.398L461.49 773.61L466.14 790.964ZM276.001 81.353L299.183 75.1416L294.533 57.7869L271.351 63.9983L276.001 81.353Z"
        fill="#47515C"
        fill-opacity="0.2" />
  <path fill-rule="evenodd"
        clip-rule="evenodd"
        d="M640.528 703.434L657.498 686.463L644.794 673.759L627.823 690.729L640.528 703.434ZM121.056 183.961L138.026 166.991L125.322 154.286L108.351 171.257L121.056 183.961Z"
        fill="#47515C"
        fill-opacity="0.2" />
  <path fill-rule="evenodd"
        clip-rule="evenodd"
        d="M747.789 540.436L754 517.254L736.645 512.604L730.434 535.786L747.789 540.436ZM38.1754 350.296L44.387 327.114L27.0323 322.464L20.8207 345.646L38.1754 350.296Z"
        fill="#47515C"
        fill-opacity="0.2" />
</svg>
