<svg xmlns="http://www.w3.org/2000/svg"
     width="32"
     height="32"
     viewBox="0 0 24 24">
  <path fill="hsl(45, 100%, 52%)"
        stroke="hsl(45, 100%, 52%)"
        stroke-linecap="round"
        stroke-linejoin="round"
        stroke-width="1.5"
        d="M17 12a5 5 0 1 1-10 0a5 5 0 0 1 10 0M12 2c-.377.333-.905 1.2 0 2m0 16c.377.333.906 1.2 0 2m7.5-17.497c-.532-.033-1.575.22-1.496 1.495M5.496 17.5c.033.532-.22 1.575-1.496 1.496M5.003 4.5c-.033.532.22 1.576 1.497 1.497M18 17.503c.532-.032 1.575.208 1.496 1.414M22 12c-.333-.377-1.2-.905-2 0m-16-.5c-.333.377-1.2.906-2 0"
        color="hsl(26, 80%, 60%)" />
</svg>