<?xml version="1.0" encoding="UTF-8"?>
<!-- Generated by Pixelmator Pro 3.6.5 -->
<svg width="318" height="318" viewBox="0 0 318 318" xmlns="http://www.w3.org/2000/svg">
    <filter id="filter1" x="0" y="0" width="318" height="318" filterUnits="userSpaceOnUse" primitiveUnits="userSpaceOnUse" color-interpolation-filters="sRGB">
        <feGaussianBlur stdDeviation="7.44908"/>
    </filter>
    <g id="Group" filter="url(#filter1)">
        <path id="Path" fill="#bac7cb" stroke="none" d="M 231.542007 282.134003 C 231.542007 284.704987 199.024994 286.789001 158.914001 286.789001 C 118.802002 286.789001 86.285202 284.704987 86.285202 282.134003 C 86.285202 279.562988 118.802002 277.477997 158.914001 277.477997 C 199.024994 277.477997 231.542007 279.562988 231.542007 282.134003 Z"/>
    </g>
    <linearGradient id="linearGradient1" x1="186.932" y1="96.4063" x2="128.723" y2="228.175" gradientUnits="userSpaceOnUse">
        <stop offset="1e-05" stop-color="#ffd88b" stop-opacity="1"/>
        <stop offset="1" stop-color="#ffa900" stop-opacity="1"/>
    </linearGradient>
    <path id="path1" fill="url(#linearGradient1)" stroke="none" d="M 228.190002 159.100006 C 228.190002 197.257004 197.257004 228.190002 159.100006 228.190002 C 120.943001 228.190002 90.009804 197.257004 90.009804 159.100006 C 90.009804 120.942001 120.943001 90.009705 159.100006 90.009705 C 197.257004 90.009705 228.190002 120.942001 228.190002 159.100006 Z"/>
</svg>
