<?xml version="1.0" encoding="UTF-8"?>
<!-- Generated by Pixelmator Pro 3.6.5 -->
<svg width="319" height="319" viewBox="0 0 319 319" xmlns="http://www.w3.org/2000/svg">
    <path id="Path" fill="#00a3ff" stroke="none" d="M 165.548996 165.839005 C 149.317993 174.778 138.391006 191.464996 138.391006 210.589005 C 138.391006 211.272003 138.401001 211.951004 138.429993 212.626007 C 139.757996 245.112 191.339005 245.112 192.667007 212.626007 C 192.697006 211.951004 192.707001 211.272003 192.707001 210.589005 C 192.712006 191.464996 181.779007 174.778 165.548996 165.839005 Z"/>
    <path id="path1" fill="#00a3ff" stroke="none" d="M 117.205002 81.801208 C 97.408897 92.500397 84.074699 112.471008 84.074699 135.358994 C 84.074699 136.177994 84.092796 136.990005 84.129097 137.802994 C 85.742996 176.677994 148.660004 176.677994 150.279999 137.802994 C 150.309998 136.990005 150.328995 136.177994 150.328995 135.358994 C 150.328995 112.471008 137 92.500397 117.205002 81.801208 Z"/>
    <path id="path2" fill="#00a3ff" stroke="none" d="M 210.613007 103.091003 C 195.988007 111.11499 186.141006 126.093002 186.141006 143.259003 C 186.141006 143.873001 186.154007 144.483002 186.177002 145.091995 C 187.373993 174.248001 233.852997 174.248001 235.050003 145.091995 C 235.076004 144.483002 235.085007 143.873001 235.085007 143.259003 C 235.089996 126.093002 225.242996 111.11499 210.613007 103.091003 Z"/>
</svg>
